<?xml version="1.0" encoding="UTF-8"?><svg id="a" xmlns="http://www.w3.org/2000/svg" viewBox="0 0 778 776.97"><defs><style>.b{fill:#303030;}</style></defs><path class="b" d="M334.6,43.25c5.3,29.63,19.03,56.96,39.72,78.49,19.62,20.42,44.19,34.22,71.1,40.27,8.15,22.97,21.62,43.71,39.32,60.11,26.3,24.36,60.58,37.78,96.52,37.78,.45,0,.9,0,1.34,0,9.41,16.94,21.95,31.8,37.13,43.87,25.24,20.06,55.74,30.66,88.21,30.66,8.5,0,17.06-.81,25.55-2.4,2.99,18.47,4.5,37.19,4.5,55.95,0,47.13-9.22,92.83-27.41,135.83-17.58,41.55-42.75,78.88-74.81,110.95-32.06,32.06-69.39,57.23-110.95,74.81-43,18.19-88.7,27.41-135.83,27.41s-92.83-9.22-135.83-27.41c-41.55-17.58-78.88-42.75-110.95-74.81-32.06-32.06-57.23-69.39-74.81-110.95-18.19-43-27.41-88.7-27.41-135.83,0-88.9,33.44-173.57,94.16-238.42,53.6-57.24,123.91-94.34,200.43-106.31M361.39,0C159.44,14.17,0,182.42,0,387.97s174.16,389,389,389,389-174.16,389-389c0-34.6-4.57-68.12-13.05-100.05-2.71-1.81-5.22-3.92-7.46-6.27-15.31,8.13-32.69,12.76-49.54,12.76-48.69,0-86.87-33.04-99.92-76.69-.76-.32-1.51-.65-2.25-1-8.1,2.03-16.37,3.17-24.52,3.17-54.52,0-95.87-41.41-103.5-92.77-.7-.54-1.41-1.06-2.05-1.66-58.06-.66-100.93-48.32-103.45-104.64-.2-4.48,.08-9.06,.72-13.68-1.68-2.29-3.27-4.65-4.79-7.05-2.46-.04-5.06-.08-6.8-.11h0Z"/><path class="b" d="M389,305.01c45.74,0,82.96,37.22,82.96,82.96s-37.22,82.96-82.96,82.96-82.96-37.22-82.96-82.96,37.22-82.96,82.96-82.96m0-40c-67.91,0-122.96,55.05-122.96,122.96s55.05,122.96,122.96,122.96,122.96-55.05,122.96-122.96-55.05-122.96-122.96-122.96h0Z"/></svg>